<svg xmlns="http://www.w3.org/2000/svg" width="206" height="27" fill="none"><path fill="#C67A88" d="M.988 26V.8H5.65v20.682h12.186V26zm19.115 0L29.697.8h4.428l9.63 25.2h-5.022l-1.998-5.328h-9.63L25.143 26zm8.514-9.594h6.57l-2.52-6.75a28 28 0 0 1-.27-.684 19 19 0 0 1-.486-1.44l-.216.684a19 19 0 0 1-.27.756q-.144.378-.27.684zM49.492 26V5.282h-7.146V.8h18.99v4.482h-7.182V26zm22.149 0V5.282h-7.147V.8h18.99v4.482h-7.181V26zm16.078 0V.8h17.027v4.428H92.381v5.544h7.326V15.2H92.38v6.336h13.121V26zm41.058.396q-2.934 0-4.968-1.134a9.34 9.34 0 0 1-3.258-3.006 13.5 13.5 0 0 1-1.782-4.194 19.7 19.7 0 0 1-.558-4.662q0-2.232.558-4.518a14 14 0 0 1 1.818-4.23 9.6 9.6 0 0 1 3.276-3.114q2.016-1.17 4.914-1.17 2.394 0 4.158.81 1.764.792 2.916 2.07 1.17 1.26 1.782 2.646l-4.176 1.944a10.6 10.6 0 0 0-1.26-1.602 4.5 4.5 0 0 0-1.476-1.044q-.81-.378-1.944-.378-1.62 0-2.718.792-1.098.774-1.764 2.052a10 10 0 0 0-.954 2.79 15.8 15.8 0 0 0-.288 2.952q0 1.53.324 3.042a9.7 9.7 0 0 0 1.026 2.754q.702 1.242 1.782 1.998 1.08.738 2.592.738 1.62 0 2.718-.9 1.116-.918 1.98-2.34l4.266 1.602a12.9 12.9 0 0 1-2.034 3.132 8.8 8.8 0 0 1-2.934 2.178q-1.71.792-3.996.792M139.775 26 149.369.8h4.428l9.63 25.2h-5.022l-1.998-5.328h-9.63L144.815 26zm8.514-9.594h6.57l-2.52-6.75a28 28 0 0 1-.27-.684 19 19 0 0 1-.486-1.44l-.216.684a19 19 0 0 1-.27.756q-.144.378-.27.684zM167.136 26V.8h16.758v4.428h-12.096v5.544h7.74V15.2h-7.74V26zm20.672 0V.8h17.028v4.428H192.47v5.544h7.326V15.2h-7.326v6.336h13.122V26z"/></svg>