<svg aria-hidden="true" style="width: 0; height: 0; position: absolute; overflow: hidden" version="1.1" xmlns="http://www.w3.org/2000/svg" xmlns:xlink="http://www.w3.org/1999/xlink">
    <defs>
        <symbol id="icon-menu" viewBox="0 0 24 24">
            <path d="M3 13h18c0.552 0 1-0.448 1-1s-0.448-1-1-1h-18c-0.552 0-1 0.448-1 1s0.448 1 1 1zM3 7h18c0.552 0 1-0.448 1-1s-0.448-1-1-1h-18c-0.552 0-1 0.448-1 1s0.448 1 1 1zM3 19h18c0.552 0 1-0.448 1-1s-0.448-1-1-1h-18c-0.552 0-1 0.448-1 1s0.448 1 1 1z"></path>
        </symbol>
        <symbol id="icon-close" viewBox="0 0 24 24">
            <path d="M12 13.4l-4.9 4.9c-0.183 0.183-0.417 0.275-0.7 0.275s-0.517-0.092-0.7-0.275c-0.183-0.183-0.275-0.417-0.275-0.7s0.092-0.517 0.275-0.7l4.9-4.9-4.9-4.9c-0.183-0.183-0.275-0.417-0.275-0.7s0.092-0.517 0.275-0.7c0.183-0.183 0.417-0.275 0.7-0.275s0.517 0.092 0.7 0.275l4.9 4.9 4.9-4.9c0.183-0.183 0.417-0.275 0.7-0.275s0.517 0.092 0.7 0.275c0.183 0.183 0.275 0.417 0.275 0.7s-0.092 0.517-0.275 0.7l-4.9 4.9 4.9 4.9c0.183 0.183 0.275 0.417 0.275 0.7s-0.092 0.517-0.275 0.7c-0.183 0.183-0.417 0.275-0.7 0.275s-0.517-0.092-0.7-0.275l-4.9-4.9z"></path>
        </symbol>
    </defs>
</svg>