<svg width="206" height="27" viewBox="0 0 206 27" fill="none" xmlns="http://www.w3.org/2000/svg">
<path d="M0.988 26V0.799998H5.65V21.482H17.836V26H0.988ZM20.1034 26L29.6974 0.799998H34.1254L43.7554 26H38.7334L36.7354 20.672H27.1054L25.1434 26H20.1034ZM28.6174 16.406H35.1874L32.6674 9.656C32.5834 9.452 32.4934 9.224 32.3974 8.972C32.3014 8.72 32.2114 8.468 32.1274 8.216C32.0434 7.952 31.9714 7.724 31.9114 7.532C31.8514 7.724 31.7794 7.952 31.6954 8.216C31.6114 8.468 31.5214 8.72 31.4254 8.972C31.3294 9.224 31.2394 9.452 31.1554 9.656L28.6174 16.406ZM49.4921 26V5.282H42.3461V0.799998H61.3361V5.282H54.1541V26H49.4921ZM71.6405 26V5.282H64.4945V0.799998H83.4845V5.282H76.3025V26H71.6405ZM87.7185 26V0.799998H104.746V5.228H92.3805V10.772H99.7065V15.2H92.3805V21.536H105.502V26H87.7185ZM128.777 26.396C126.821 26.396 125.165 26.018 123.809 25.262C122.465 24.506 121.379 23.504 120.551 22.256C119.735 20.996 119.141 19.598 118.769 18.062C118.397 16.526 118.211 14.972 118.211 13.4C118.211 11.912 118.397 10.406 118.769 8.882C119.153 7.346 119.759 5.936 120.587 4.652C121.427 3.356 122.519 2.318 123.863 1.538C125.207 0.757999 126.845 0.368 128.777 0.368C130.373 0.368 131.759 0.637999 132.935 1.178C134.111 1.706 135.083 2.396 135.851 3.248C136.631 4.088 137.225 4.97 137.633 5.894L133.457 7.838C133.049 7.214 132.629 6.68 132.197 6.236C131.765 5.78 131.273 5.432 130.721 5.192C130.181 4.94 129.533 4.814 128.777 4.814C127.697 4.814 126.791 5.078 126.059 5.606C125.327 6.122 124.739 6.806 124.295 7.658C123.851 8.51 123.533 9.44 123.341 10.448C123.149 11.456 123.053 12.44 123.053 13.4C123.053 14.42 123.161 15.434 123.377 16.442C123.593 17.45 123.935 18.368 124.403 19.196C124.871 20.024 125.465 20.69 126.185 21.194C126.905 21.686 127.769 21.932 128.777 21.932C129.857 21.932 130.763 21.632 131.495 21.032C132.239 20.42 132.899 19.64 133.475 18.692L137.741 20.294C137.201 21.458 136.523 22.502 135.707 23.426C134.891 24.35 133.913 25.076 132.773 25.604C131.633 26.132 130.301 26.396 128.777 26.396ZM139.775 26L149.369 0.799998H153.797L163.427 26H158.405L156.407 20.672H146.777L144.815 26H139.775ZM148.289 16.406H154.859L152.339 9.656C152.255 9.452 152.165 9.224 152.069 8.972C151.973 8.72 151.883 8.468 151.799 8.216C151.715 7.952 151.643 7.724 151.583 7.532C151.523 7.724 151.451 7.952 151.367 8.216C151.283 8.468 151.193 8.72 151.097 8.972C151.001 9.224 150.911 9.452 150.827 9.656L148.289 16.406ZM167.136 26V0.799998H183.894V5.228H171.798V10.772H179.538V15.2H171.798V26H167.136ZM187.808 26V0.799998H204.836V5.228H192.47V10.772H199.796V15.2H192.47V21.536H205.592V26H187.808Z" fill="#C67A88"></path>
</svg>
